# xmcd CD database file
#
# Track frame offsets:
#	150
#	14285
#	29109
#	42395
#	54998
#	65153
#	82631
#	101889
#	131336
#	148335
#	162822
#	172037
#	185703
#	199449
#	210692
#	224367
#	237835
#	250288
#
# Disc length: 3517 seconds
#
# Revision: 0
# Processed by: cddbd v1.5.1PL0 Copyright (c) Steve Scherf et al.
# Submitted via: CDex 1.51
#
DISCID=140dbb12
DTITLE=Duke Ellington - Indigo Mood
DYEAR=2004
DGENRE=Jazz
TTITLE0=Perdido
TTITLE1=Don't Get Around Much Anymore
TTITLE2=Moon Mist
TTITLE3=Crosstown
TTITLE4=On The Alamo
TTITLE5=Just You, Just Me
TTITLE6=The Unbooted Character
TTITLE7=Tootie For Cootie
TTITLE8=Frustration
TTITLE9=Blue Lou
TTITLE10=Frisky
TTITLE11=Prelude To A Kiss
TTITLE12=Rockabye River
TTITLE13=The Suburbanite
TTITLE14=Rugged Romeo
TTITLE15=In A Jam
TTITLE16=Come Rain Or Come Shine
TTITLE17=It'  Don't Mean A Thing (If It Ain't Got That Swing)
EXTD=YEAR: 2004
EXTT0=
EXTT1=
EXTT2=
EXTT3=
EXTT4=
EXTT5=
EXTT6=
EXTT7=
EXTT8=
EXTT9=
EXTT10=
EXTT11=
EXTT12=
EXTT13=
EXTT14=
EXTT15=
EXTT16=
EXTT17=
PLAYORDER=
